<svg width="142" height="142" viewBox="0 0 142 142" fill="none" xmlns="http://www.w3.org/2000/svg">
<g opacity="0.5">
<path opacity="0.5" d="M71 142C110.212 142 142 110.212 142 71C142 31.7878 110.212 0 71 0C31.7878 0 0 31.7878 0 71C0 110.212 31.7878 142 71 142Z" fill="url(#paint0_linear)"/>
</g>
<path d="M71.1383 140.049C109.524 140.049 140.641 108.932 140.641 70.5463C140.641 32.1611 109.524 1.04364 71.1383 1.04364C32.753 1.04364 1.63562 32.1611 1.63562 70.5463C1.63562 108.932 32.753 140.049 71.1383 140.049Z" fill="#F5F5F5"/>
<path d="M71.2034 140.324C84.7842 140.346 98.0711 136.369 109.407 128.89C106.846 114.894 97.0991 114.096 97.0991 114.096H43.3506C43.3506 114.096 34.1532 114.851 31.2806 127.727C42.968 135.948 56.9142 140.348 71.2034 140.324Z" fill="#6C63FF"/>
<path d="M70.465 102.629C88.9925 102.629 104.012 87.6091 104.012 69.0816C104.012 50.5541 88.9925 35.5346 70.465 35.5346C51.9375 35.5346 36.918 50.5541 36.918 69.0816C36.918 87.6091 51.9375 102.629 70.465 102.629Z" fill="#333333"/>
<path opacity="0.1" d="M59.6379 97.0238H81.1332V114.22C81.1332 117.07 80.0015 119.803 77.9868 121.819C75.9721 123.834 73.2394 124.967 70.3897 124.968C67.5392 124.968 64.8055 123.836 62.7899 121.82C60.7743 119.805 59.642 117.071 59.642 114.22V97.0238H59.6379Z" fill="black"/>
<path d="M60.3194 96.2264H80.4598C80.6406 96.2264 80.8139 96.2982 80.9417 96.426C81.0695 96.5538 81.1413 96.7271 81.1413 96.9079V113.423C81.1416 114.835 80.8637 116.233 80.3234 117.538C79.7832 118.842 78.9912 120.027 77.9927 121.025C76.9942 122.024 75.8089 122.816 74.5043 123.356C73.1997 123.896 71.8015 124.173 70.3896 124.173C67.5392 124.173 64.8055 123.04 62.7899 121.025C60.7743 119.009 59.642 116.275 59.642 113.425V96.9079C59.642 96.7278 59.7132 96.5551 59.8401 96.4274C59.9671 96.2997 60.1394 96.2274 60.3194 96.2264Z" fill="#FDB797"/>
<path opacity="0.1" d="M59.6766 105.141C66.6044 107.729 74.2301 107.75 81.1719 105.2V102.555H59.6766V105.141Z" fill="black"/>
<path d="M70.4649 106.579C87.4812 106.579 101.276 92.7849 101.276 75.7686C101.276 58.7523 87.4812 44.9579 70.4649 44.9579C53.4486 44.9579 39.6542 58.7523 39.6542 75.7686C39.6542 92.7849 53.4486 106.579 70.4649 106.579Z" fill="#FDB797"/>
<path opacity="0.1" d="M48.5181 47.7429C48.5181 47.7429 61.5035 74.1004 98.1326 58.7937L89.6045 45.4217L74.487 39.996L48.5181 47.7429Z" fill="black"/>
<path d="M48.5181 47.3564C48.5181 47.3564 61.5035 73.7139 98.1326 58.4031L89.6045 45.0311L74.487 39.6054L48.5181 47.3564Z" fill="#333333"/>
<path d="M48.4041 45.5702C49.2796 42.8598 50.7929 40.3992 52.8166 38.3949C58.8771 32.4037 68.813 31.1403 73.9091 24.3089C75.1298 26.2049 74.1858 29.1202 72.0782 29.9339C76.9607 29.9014 82.6183 29.4742 85.379 25.4583C86.0613 27.0466 86.2787 28.7959 86.0061 30.5029C85.7335 32.2099 84.982 33.8045 83.839 35.1013C88.1661 35.3047 92.7903 38.2342 93.0629 42.5573C93.25 45.438 91.4354 48.1641 89.0775 49.816C86.7197 51.4679 83.8471 52.2267 81.0295 52.8472C72.8024 54.6639 43.0353 62.2664 48.4041 45.5702Z" fill="#333333"/>
<path d="M39.642 81.115C41.2251 81.115 42.5084 78.7086 42.5084 75.7401C42.5084 72.7717 41.2251 70.3653 39.642 70.3653C38.0589 70.3653 36.7755 72.7717 36.7755 75.7401C36.7755 78.7086 38.0589 81.115 39.642 81.115Z" fill="#FDB797"/>
<path d="M101.272 81.115C102.855 81.115 104.138 78.7086 104.138 75.7401C104.138 72.7717 102.855 70.3653 101.272 70.3653C99.6885 70.3653 98.4052 72.7717 98.4052 75.7401C98.4052 78.7086 99.6885 81.115 101.272 81.115Z" fill="#FDB797"/>
<defs>
<linearGradient id="paint0_linear" x1="71" y1="142" x2="71" y2="0" gradientUnits="userSpaceOnUse">
<stop stop-color="#808080" stop-opacity="0.25"/>
<stop offset="0.54" stop-color="#808080" stop-opacity="0.12"/>
<stop offset="1" stop-color="#808080" stop-opacity="0.1"/>
</linearGradient>
</defs>
</svg>
